<svg xmlns="http://www.w3.org/2000/svg" width="393" height="852" viewBox="0 0 393 852" fill="none">
  <rect width="393" height="852" fill="#F2F2F7"/>
  <rect x="0" y="0" width="393" height="120" fill="#FFFFFF"/>
  <rect x="24" y="72" width="120" height="14" rx="7" fill="#C7C7CC"/>
  <rect x="24" y="148" width="345" height="180" rx="16" fill="#FFFFFF"/>
  <rect x="44" y="168" width="200" height="12" rx="6" fill="#E5E5EA"/>
  <rect x="44" y="192" width="280" height="10" rx="5" fill="#E5E5EA"/>
  <rect x="44" y="214" width="240" height="10" rx="5" fill="#E5E5EA"/>
  <rect x="44" y="248" width="100" height="32" rx="8" fill="#AEAEB2"/>
  <rect x="24" y="352" width="160" height="160" rx="16" fill="#FFFFFF"/>
  <rect x="200" y="352" width="160" height="160" rx="16" fill="#FFFFFF"/>
  <rect x="44" y="372" width="120" height="10" rx="5" fill="#E5E5EA"/>
  <rect x="220" y="372" width="120" height="10" rx="5" fill="#E5E5EA"/>
  <rect x="24" y="536" width="345" height="120" rx="16" fill="#FFFFFF"/>
  <rect x="44" y="556" width="180" height="10" rx="5" fill="#E5E5EA"/>
  <rect x="44" y="578" width="260" height="10" rx="5" fill="#E5E5EA"/>
  <rect x="44" y="600" width="220" height="10" rx="5" fill="#E5E5EA"/>
  <rect x="24" y="680" width="80" height="80" rx="20" fill="#FFFFFF"/>
  <rect x="120" y="680" width="80" height="80" rx="20" fill="#FFFFFF"/>
  <rect x="216" y="680" width="80" height="80" rx="20" fill="#FFFFFF"/>
  <rect x="312" y="680" width="57" height="80" rx="20" fill="#FFFFFF"/>
  <rect x="0" y="772" width="393" height="80" fill="#FFFFFF"/>
  <rect x="40" y="796" width="48" height="32" rx="8" fill="#D1D1D6"/>
  <rect x="120" y="796" width="48" height="32" rx="8" fill="#D1D1D6"/>
  <rect x="200" y="796" width="48" height="32" rx="8" fill="#D1D1D6"/>
  <rect x="280" y="796" width="48" height="32" rx="8" fill="#D1D1D6"/>
</svg>
